<!-- Generated by IcoMoon.io -->
<svg version="1.1" xmlns="http://www.w3.org/2000/svg" width="48" height="48" viewBox="0 0 48 48" fill="blue">
<title>spoon-knife</title>
<rect width="100%" height="100%" fill="white" /> 
<path d="M10.5 0c-4.971 0-9 4.701-9 10.5 0 4.965 2.954 9.125 6.924 10.219l-1.49 24.287c-0.101 1.647 1.166 2.994 2.816 2.994h1.5c1.65 0 2.917-1.347 2.816-2.994l-1.49-24.287c3.97-1.094 6.924-5.253 6.924-10.219 0-5.799-4.029-10.5-9-10.5zM40.75 0l-2.5 15h-1.875l-1.25-15h-1.25l-1.25 15h-1.875l-2.5-15h-1.25v19.5c0 0.828 0.672 1.5 1.5 1.5h3.906l-1.473 24.006c-0.101 1.647 1.166 2.994 2.816 2.994h1.5c1.65 0 2.917-1.347 2.816-2.994l-1.473-24.006h3.906c0.828 0 1.5-0.672 1.5-1.5v-19.5h-1.25z"></path>
</svg>
